<?xml version="1.0" encoding="UTF-8"?>
<svg version="1.1" xmlns="http://www.w3.org/2000/svg" width="3612" height="1212">
<path d="M0 0 C1.02419271 -0.00297112 2.04838542 -0.00594224 3.10361427 -0.0090034 C6.50511476 -0.01761303 9.90657973 -0.01919207 13.30809021 -0.02069092 C15.76010715 -0.02532479 18.21212339 -0.03035021 20.66413879 -0.03573608 C27.3075846 -0.04881231 33.9510167 -0.05533434 40.59447217 -0.05974674 C44.75651439 -0.06252246 48.91855434 -0.0667623 53.08059502 -0.07125092 C64.64204162 -0.08343799 76.20348642 -0.09373627 87.76493931 -0.09712601 C88.87250736 -0.09745536 88.87250736 -0.09745536 90.00245052 -0.09779136 C90.74244132 -0.09800964 91.48243212 -0.09822791 92.24484688 -0.09845281 C93.74395533 -0.09889625 95.24306379 -0.09934281 96.74217224 -0.09979248 C97.48575719 -0.10001391 98.22934214 -0.10023534 98.99545997 -0.10046348 C111.00819662 -0.10440024 123.02087219 -0.12182237 135.03358532 -0.145152 C147.41673738 -0.16900333 159.799859 -0.18133418 172.18303436 -0.18249393 C179.11537917 -0.18340335 186.04764451 -0.18896737 192.97996712 -0.20731354 C199.51606248 -0.22455193 206.05204838 -0.22586558 212.58816147 -0.21717453 C214.96545122 -0.21641332 217.34274959 -0.2206231 219.72001839 -0.23063278 C240.81425254 -0.31412335 261.81971728 1.19374351 282.43479919 5.89044189 C283.59076599 6.14793213 284.74673279 6.40542236 285.93772888 6.67071533 C311.62557519 12.54766561 335.99799935 21.73042069 359.24729919 34.14044189 C359.96047302 34.51636475 360.67364685 34.8922876 361.40843201 35.27960205 C411.18417852 61.63464079 452.70373567 103.17935074 480.24729919 152.14044189 C480.71232849 152.96205811 481.17735779 153.78367432 481.65647888 154.63018799 C499.56463097 186.5929185 511.1819735 221.86641945 516.24729919 258.14044189 C516.33838959 258.78719879 516.42947998 259.43395569 516.52333069 260.10031128 C518.54534499 274.97937063 518.60576097 289.83371267 518.55979919 304.82794189 C518.55764404 306.09044769 518.55548889 307.35295349 518.55326843 308.65371704 C518.50029842 328.00047684 517.99870757 346.96957759 515.24729919 366.14044189 C515.15019653 366.83216492 515.05309387 367.52388794 514.95304871 368.23657227 C509.05180095 410.15848397 498.39822524 450.76382544 480.24729919 489.14044189 C479.76035583 490.17330322 479.27341248 491.20616455 478.77171326 492.27032471 C455.692833 540.77237527 423.07728166 579.62042399 385.24729919 617.14044189 C386.87150359 621.28884005 389.900423 624.01272866 393.03245544 627.05059814 C393.89513283 627.90191566 393.89513283 627.90191566 394.77523804 628.77043152 C397.22347767 631.18623784 399.68312534 633.59029244 402.14256287 635.99468994 C409.69163043 643.38930088 416.69913544 650.83208446 423.24729919 659.14044189 C424.18142908 660.24282088 425.12276641 661.33919066 426.07542419 662.42559814 C476.38334457 720.11742296 506.22470414 795.77981231 516.24729919 871.14044189 C516.36299255 871.93821045 516.47868591 872.735979 516.59788513 873.55792236 C524.8123646 930.90083915 511.39493961 990.46318299 484.24729919 1041.14044189 C483.85542419 1041.87488525 483.46354919 1042.60932861 483.05979919 1043.36602783 C465.07638356 1076.87418899 440.10011022 1108.40360791 410.24729919 1132.14044189 C409.40940857 1132.84555908 408.57151794 1133.55067627 407.70823669 1134.27716064 C354.56415128 1178.99204822 286.15022514 1200.72211266 217.30589294 1200.52862549 C214.82063061 1200.53270439 212.33537009 1200.53805356 209.85011292 1200.54455566 C203.86866597 1200.55668346 197.8873768 1200.55509163 191.90593648 1200.54631774 C187.03402744 1200.53947424 182.16214992 1200.53865281 177.29023743 1200.54188919 C176.59035027 1200.54234889 175.89046311 1200.54280859 175.16936725 1200.54328222 C173.74647688 1200.54424163 172.32358651 1200.54521428 170.90069616 1200.54619999 C157.63454805 1200.55470473 144.36846266 1200.5449977 131.10232484 1200.52879889 C119.77985006 1200.51540022 108.45746763 1200.51772971 97.13499451 1200.53155518 C83.90837752 1200.54769873 70.68181517 1200.55388122 57.4551897 1200.54471838 C56.0382468 1200.54376298 54.62130388 1200.54281987 53.20436096 1200.54188919 C52.15928136 1200.54119495 52.15928136 1200.54119495 51.09308904 1200.54048669 C46.24090418 1200.53792294 41.38875469 1200.54221042 36.53657532 1200.54932785 C29.97647498 1200.55874132 23.41651938 1200.55180805 16.85642624 1200.53464508 C14.47064878 1200.53072946 12.08485648 1200.53172786 9.69908524 1200.53843307 C-62.76046522 1200.72306793 -132.81853407 1174.13582979 -186.42457581 1125.24981689 C-188.48423114 1123.38368622 -190.57658975 1121.56974401 -192.69020081 1119.76544189 C-200.61884627 1112.84793948 -208.04874598 1105.24786694 -214.75270081 1097.14044189 C-215.17100159 1096.63593506 -215.58930237 1096.13142822 -216.02027893 1095.6116333 C-258.6227786 1043.98795064 -287.00432316 978.4995126 -286.88412857 910.80474854 C-286.8861812 909.7128327 -286.88823384 908.62091686 -286.89034867 907.49591267 C-286.89599026 903.84746299 -286.89456494 900.1990514 -286.8931427 896.55059814 C-286.89572798 893.90397439 -286.89870308 891.25735364 -286.9021461 888.61073112 C-286.90969965 882.10625487 -286.91191781 875.60178683 -286.91247516 869.09730665 C-286.91339145 861.30206524 -286.92006695 853.50683135 -286.92682198 845.7115932 C-286.94285892 826.87137119 -286.94878312 808.03115002 -286.95357073 789.19092242 C-286.95590949 780.26992297 -286.9595125 771.34892416 -286.96326611 762.42792521 C-286.976101 731.86341941 -286.98681911 701.29891396 -286.99026871 670.73440552 C-286.99049034 668.81676598 -286.99071212 666.89912645 -286.99093406 664.98148692 C-286.9911547 663.0593253 -286.99137518 661.13716368 -286.99159551 659.21500206 C-286.99203805 655.35909398 -286.99248517 651.50318591 -286.99293518 647.64727783 C-286.99304457 646.69124138 -286.99315396 645.73520493 -286.99326667 644.75019768 C-286.99689422 613.77725919 -287.01280317 582.80434415 -287.03612554 551.83141464 C-287.06076346 519.0511687 -287.07444343 486.27093616 -287.07563663 453.49068069 C-287.07580807 449.8867925 -287.07602349 446.28290431 -287.07627106 442.67901611 C-287.07635471 441.34804064 -287.07635471 441.34804064 -287.07644005 439.99017677 C-287.0775872 425.75570847 -287.08858068 411.52126436 -287.10315811 397.28680421 C-287.11757863 382.9568571 -287.12072895 368.62694075 -287.11271814 354.29698837 C-287.10828757 345.80202234 -287.11201831 337.30715615 -287.12795664 328.81220339 C-287.13779986 323.11562732 -287.1364407 317.4191202 -287.12652041 311.72254457 C-287.12119455 308.49119464 -287.12191928 305.26006891 -287.13302913 302.02872849 C-287.40325618 218.02954368 -254.59059501 142.32879832 -195.75270081 82.95294189 C-189.71147239 76.9243535 -183.50824208 71.36543085 -176.75270081 66.14044189 C-175.4387514 65.07712629 -174.12637858 64.01186084 -172.81520081 62.94512939 C-125.18533444 24.55416098 -61.53128014 -0.05704456 0 0 Z " fill="#34BBB5" transform="translate(292.75270080566406,5.85955810546875)"/>
<path d="M0 0 C4.2950101 2.19852569 6.86663612 4.95079615 8.80859375 9.30078125 C9.53178382 14.72843459 9.99980511 20.25510252 6.87109375 24.98828125 C4.80859375 27.30078125 4.80859375 27.30078125 3.80859375 28.30078125 C2.67802774 38.70198855 8.32604266 47.87592774 13.80859375 56.30078125 C14.99453125 55.73230469 16.18046875 55.16382813 17.40234375 54.578125 C21.68901088 52.52933715 25.98536782 50.50179418 30.28710938 48.48486328 C31.82934094 47.76063564 33.37008807 47.03322268 34.90820312 46.30029297 C89.45179526 20.4045967 156.70939423 19.51965426 213.24609375 39.42578125 C222.98151151 42.95558184 232.31375117 47.17044861 241.55053711 51.84619141 C242.44651611 52.29655762 243.34249512 52.74692383 244.265625 53.2109375 C245.0491333 53.61449463 245.8326416 54.01805176 246.63989258 54.43383789 C249.03837053 55.54824286 249.03837053 55.54824286 252.80859375 55.30078125 C253.94236295 53.28485472 255.06521016 51.26278378 256.18359375 49.23828125 C256.81007813 48.11292969 257.4365625 46.98757813 258.08203125 45.828125 C260.88545882 40.10076054 262.51945577 34.69853946 261.80859375 28.30078125 C259.97731265 25.48978711 259.97731265 25.48978711 257.80859375 23.30078125 C255.71553799 19.11466973 256.38494767 13.85945177 256.80859375 9.30078125 C259.07871475 4.41128986 261.90360669 1.53814377 266.80859375 -0.69921875 C272.24895676 -1.58584897 277.43284514 -2.0344404 282.359375 0.734375 C286.42153111 4.18757901 289.34635031 7.43842763 290.21484375 12.81640625 C290.43023027 19.09851313 289.69613569 22.90988005 285.5234375 27.7109375 C282.42927402 30.57955831 279.46057843 32.1256861 275.265625 32.5703125 C272.63800351 33.05764351 272.63800351 33.05764351 271.48046875 35.41015625 C271.17625 36.2815625 270.87203125 37.15296875 270.55859375 38.05078125 C270.2440625 38.911875 269.92953125 39.77296875 269.60546875 40.66015625 C267.12363261 48.88427993 265.57600471 58.87665167 267.80859375 67.30078125 C270.52672204 71.46454584 274.91843885 73.8056554 279.125 76.26513672 C283.49504423 78.95332228 287.11138054 82.77836465 290.80859375 86.30078125 C291.37868164 86.8436377 291.94876953 87.38649414 292.53613281 87.94580078 C324.78281748 118.85657538 345.64848244 159.35292992 347.03125 204.44921875 C347.39415428 223.41947297 346.1060041 242.26989812 339.80859375 260.30078125 C339.39649658 261.48172363 339.39649658 261.48172363 338.97607422 262.68652344 C321.071641 313.33510029 283.49430846 351.33386969 235.43359375 374.55078125 C179.39460376 400.79925719 111.47727462 404.83902821 52.80859375 384.30078125 C49.42839019 383.06768299 46.11909364 381.70950461 42.80859375 380.30078125 C41.66261719 379.8315625 40.51664062 379.36234375 39.3359375 378.87890625 C-8.02104465 359.16803136 -49.11478267 322.9594717 -69.2265625 275.19921875 C-72.28562535 267.67081322 -75.01263694 260.13225583 -77.19140625 252.30078125 C-77.40168457 251.56504883 -77.61196289 250.82931641 -77.82861328 250.07128906 C-81.22579449 237.60688865 -81.55782476 225.19563394 -81.56640625 212.36328125 C-81.56840027 211.57368011 -81.57039429 210.78407898 -81.57244873 209.97055054 C-81.56057386 168.42846714 -65.98779951 129.06392859 -37.48828125 98.75 C-35.50031871 96.63018281 -33.62005989 94.46433595 -31.75390625 92.23828125 C-26.278494 85.98792667 -20.30813149 80.08432992 -13.1484375 75.81640625 C-5.9941225 71.79697239 -5.9941225 71.79697239 -1.49707031 65.30029297 C-0.72412798 60.22800227 -1.32897174 55.32296408 -2.19140625 50.30078125 C-2.38863281 48.91052734 -2.38863281 48.91052734 -2.58984375 47.4921875 C-2.98255287 45.35451616 -3.53641709 43.37071494 -4.19140625 41.30078125 C-4.35125 40.57246094 -4.51109375 39.84414063 -4.67578125 39.09375 C-5.278066 36.83518217 -5.83198499 35.20668082 -7.19140625 33.30078125 C-9.42120233 32.17078788 -11.5539617 31.5539732 -13.97265625 30.93359375 C-17.99767921 29.78561185 -20.31241957 27.30100748 -23.00390625 24.23828125 C-24.86921301 19.62410136 -24.83406069 15.20372915 -24.19140625 10.30078125 C-22.56640625 6.92578125 -22.56640625 6.92578125 -20.19140625 4.30078125 C-19.36640625 3.35203125 -18.54140625 2.40328125 -17.69140625 1.42578125 C-12.82135503 -2.40334299 -5.63520274 -1.79804152 0 0 Z " fill="#FEFEFE" transform="translate(271.19140625,246.69921875)"/>
<path d="M0 0 C3.42809569 0.01147631 6.85617968 0.00719423 10.28428912 0.00525308 C16.04443539 0.0043743 21.80446308 0.01535563 27.56457782 0.03386331 C34.16509386 0.05495381 40.76543564 0.05855326 47.36597854 0.05230135 C53.77959724 0.04654379 60.19315635 0.052332 66.60676646 0.06347489 C69.30516504 0.06804457 72.00346525 0.0684934 74.70187831 0.06688905 C94.0387306 0.06496746 113.51142149 0.19754906 132.45398211 4.55754495 C133.40289325 4.77185159 134.35180438 4.98615823 135.3294704 5.20695901 C161.12614777 11.30364994 182.55809202 23.24663342 201.82898211 41.37004495 C202.7319704 42.17635354 202.7319704 42.17635354 203.65320086 42.9989512 C217.87621471 56.22734869 227.91277465 75.79072807 232.82898211 94.37004495 C233.02363055 95.07870706 233.21827899 95.78736917 233.41882586 96.51750588 C240.35781804 122.65210875 239.42662376 150.96482675 225.84167743 174.66008401 C214.59148959 193.65630282 198.49487477 206.36444715 179.71179461 217.26848245 C178.09890393 218.21212389 176.50830638 219.19369218 174.92273211 220.18254495 C172.82898211 221.37004495 172.82898211 221.37004495 170.82898211 221.37004495 C170.82898211 222.03004495 170.82898211 222.69004495 170.82898211 223.37004495 C171.38368182 223.5394761 171.93838153 223.70890725 172.50989032 223.88347268 C177.96883811 225.61686622 182.97378989 227.7252835 188.01648211 230.43254495 C189.11005023 231.01745706 189.11005023 231.01745706 190.22571063 231.61418557 C201.54944708 237.81384195 211.49774051 245.45988825 220.82898211 254.37004495 C221.74550555 255.19182229 221.74550555 255.19182229 222.68054461 256.0302012 C240.24881371 272.35505399 249.09371687 296.89457472 250.03210711 320.44816995 C250.75123669 358.56203751 237.48169344 391.78714929 211.20398211 419.37004495 C183.31404772 446.56920697 143.9089741 459.9252673 105.70959735 462.49406838 C104.50153399 462.5771613 103.29347062 462.66025422 102.04879928 462.74586511 C89.23602353 463.56469535 76.44851852 463.66092825 63.61413836 463.63566995 C61.12939168 463.63702319 58.64464527 463.63896915 56.15989947 463.64146829 C51.01481807 463.64438036 45.86980714 463.64024493 40.72473407 463.63078713 C34.16217083 463.6193039 27.59976968 463.62603266 21.03721213 463.63793206 C15.93174792 463.64518056 10.82632182 463.64285055 5.72085643 463.63767648 C3.30056432 463.63635293 0.88026864 463.63794169 -1.54001927 463.64263558 C-23.08765234 463.67532426 -42.07243854 463.36501358 -59.17101789 448.37004495 C-66.92893292 440.12185275 -72.41443267 430.09808284 -72.42828679 418.61856198 C-72.43179287 417.96153386 -72.43529894 417.30450574 -72.43891126 416.62756768 C-72.44820668 414.42846732 -72.44330683 412.22963287 -72.43844342 410.03052163 C-72.44218063 408.43688299 -72.44678244 406.84324618 -72.45217407 405.24961227 C-72.46441094 400.87197502 -72.46414278 396.49441416 -72.46178532 392.11676371 C-72.46137732 387.39472128 -72.47241474 382.67270339 -72.48190045 377.95067239 C-72.49851568 368.69940673 -72.50401026 359.44816656 -72.50512521 350.19688723 C-72.50607553 342.67614399 -72.51018501 335.15540917 -72.51652646 327.63466859 C-72.53414104 306.31021201 -72.5433651 284.98577557 -72.54186551 263.66131166 C-72.5417856 262.51162675 -72.54170569 261.36194184 -72.54162335 260.17741799 C-72.54154159 259.0263285 -72.54145983 257.87523901 -72.54137559 256.68926802 C-72.54056285 238.03788388 -72.55969711 219.38658053 -72.58790009 200.73521975 C-72.61663268 181.58239075 -72.63044014 162.42960113 -72.62871253 143.27675003 C-72.62804872 132.52463404 -72.63353732 121.77260272 -72.65506864 111.02050614 C-72.67328544 101.86489041 -72.67762371 92.70939772 -72.66404979 83.55377171 C-72.65752242 78.88404167 -72.65739459 74.21454765 -72.67475629 69.5448401 C-72.69050244 65.26556495 -72.6876077 60.98671266 -72.67018802 56.70744773 C-72.6671215 55.16369809 -72.67073741 53.61991678 -72.68190818 52.07620452 C-72.78220574 37.22611761 -69.34559231 26.18915313 -59.13976789 15.1786387 C-42.44400148 -0.76097886 -21.58721041 -0.0894154 0 0 Z M19.82898211 83.37004495 C19.82898211 115.71004495 19.82898211 148.05004495 19.82898211 181.37004495 C32.57523211 181.43191995 45.32148211 181.49379495 58.45398211 181.55754495 C62.45088153 181.58485696 66.44778094 181.61216897 70.56579852 181.64030862 C74.20731995 181.6503534 74.20731995 181.6503534 77.84884906 181.65637612 C79.44742612 181.66092675 81.04599412 181.67135852 82.64450336 181.68677163 C100.97542912 181.85439758 117.12234936 179.74052488 131.20398211 166.80754495 C141.88199032 155.39911924 145.47686236 141.72040966 145.07507586 126.4364512 C144.48920854 114.05745363 140.64559232 102.5219462 131.45398211 93.93254495 C120.46619957 84.91740122 108.00022236 83.18982866 94.18811297 83.25651956 C93.36431675 83.25639902 92.54052052 83.25627849 91.69176078 83.2561543 C89.05908709 83.25689303 86.42648668 83.26447319 83.79382586 83.2723887 C82.1548695 83.27386135 80.51591267 83.27488006 78.87695575 83.27544045 C72.84012397 83.28065592 66.8033023 83.29461716 60.76648211 83.30754495 C47.25710711 83.32816995 33.74773211 83.34879495 19.82898211 83.37004495 Z M19.82898211 245.37004495 C19.82898211 282.66004495 19.82898211 319.95004495 19.82898211 358.37004495 C40.40241961 358.46285745 40.40241961 358.46285745 61.39148211 358.55754495 C67.84303851 358.59851296 67.84303851 358.59851296 74.42492938 358.64030862 C78.34319211 358.65035334 78.34319211 358.65035334 82.26146197 358.65637612 C83.98165994 358.66092705 85.70184949 358.67135946 87.42198443 358.68677163 C107.86584138 358.86049169 126.79688461 356.37596899 142.82898211 342.37004495 C154.03792317 330.8220811 157.20815227 316.75415374 157.12951922 301.18962502 C156.77744173 286.01240113 151.89129494 272.6810909 141.31335711 261.6239512 C123.94614387 245.86784735 102.73056485 245.20207109 80.57116961 245.2723887 C79.01265761 245.27386196 77.45414511 245.2748803 75.89563251 245.27544045 C70.16507475 245.28064877 64.43452764 245.29460995 58.70398211 245.30754495 C45.87523211 245.32816995 33.04648211 245.34879495 19.82898211 245.37004495 Z " fill="#4A4746" transform="translate(1080.1710178852081,389.62995505332947)"/>
<path d="M0 0 C2.50242001 2.17454269 4.75461173 4.41354844 6.96875 6.87890625 C7.78859375 7.76642578 7.78859375 7.76642578 8.625 8.671875 C16.11906469 17.70062847 20.86064807 29.20517032 23.84375 40.44140625 C24.03461182 41.15917236 24.22547363 41.87693848 24.42211914 42.61645508 C27.45608983 55.02590385 28.37981723 67.63954183 28.34375 80.37890625 C28.34353851 81.08012604 28.34332703 81.78134583 28.34310913 82.5038147 C28.25802839 111.21796041 23.26496678 139.72215547 13.96875 166.87890625 C13.6377832 167.86568359 13.30681641 168.85246094 12.96582031 169.86914062 C-2.04825687 214.42450027 -24.03885915 254.59655618 -55.79296875 289.421875 C-57.26583807 291.03868967 -58.72717425 292.66609925 -60.17578125 294.3046875 C-77.69473014 314.0963649 -95.97947793 328.83465627 -121.03125 337.87890625 C-121.73193604 338.13438232 -122.43262207 338.3898584 -123.15454102 338.65307617 C-128.49712351 340.53004265 -133.74832078 341.72755183 -139.34375 342.56640625 C-140.59140137 342.75529419 -140.59140137 342.75529419 -141.86425781 342.94799805 C-169.60374912 346.92578724 -197.13491712 338.38238094 -219.80859375 322.4453125 C-228.35436721 315.87013658 -235.98113121 308.11093164 -243.59375 300.50390625 C-244.47482422 299.63507813 -245.35589844 298.76625 -246.26367188 297.87109375 C-252.29263355 291.85548033 -257.73186977 285.54043065 -263.03125 278.87890625 C-264.06726986 277.62378437 -265.10594074 276.37084116 -266.1484375 275.12109375 C-277.70879567 261.08439162 -287.08135774 245.67565024 -296.03125 229.87890625 C-296.40991211 229.21487793 -296.78857422 228.55084961 -297.17871094 227.86669922 C-312.56700953 200.64689437 -323.23882512 170.32001604 -330.03125 139.87890625 C-330.23089355 139.01458984 -330.43053711 138.15027344 -330.63623047 137.25976562 C-334.99153568 118.28019083 -336.1964783 99.37146596 -336.28125 79.94140625 C-336.28660767 79.25938141 -336.29196533 78.57735657 -336.29748535 77.87466431 C-336.42886097 55.87356162 -332.83827067 36.1700971 -322.03125 16.87890625 C-321.53625 15.99074219 -321.04125 15.10257813 -320.53125 14.1875 C-313.79035211 3.17609009 -304.07411771 -3.10680451 -292.03125 -7.12109375 C-278.32071961 -7.83261828 -269.23537127 -6.53001012 -257.22265625 0.203125 C-238.70307946 9.9276029 -218.51618135 14.46841822 -198.03125 17.87890625 C-197.16983398 18.03133789 -196.30841797 18.18376953 -195.42089844 18.34082031 C-167.51433764 23.16379069 -136.8791245 22.92821708 -109.03125 17.87890625 C-108.15291504 17.72373535 -107.27458008 17.56856445 -106.36962891 17.40869141 C-100.55904948 16.36336252 -94.79326423 15.16278632 -89.03125 13.87890625 C-88.30437988 13.72309082 -87.57750977 13.56727539 -86.82861328 13.40673828 C-77.29767596 11.3489965 -68.75241734 8.32589515 -60.03125 3.87890625 C-58.70673828 3.22535156 -58.70673828 3.22535156 -57.35546875 2.55859375 C-54.04932289 0.92351695 -50.75933851 -0.73112684 -47.5078125 -2.47265625 C-31.81621868 -10.72884869 -14.71816839 -10.29892453 0 0 Z " fill="#FEFEFE" transform="translate(559.03125,643.12109375)"/>
<path d="M0 0 C15.98488287 12.20851895 21.7166996 29.34193597 27.95837402 47.67150879 C28.74161433 49.97140026 29.52738844 52.27041634 30.31347656 54.56933594 C32.80688619 61.86489387 35.29542535 69.16208725 37.7734375 76.46289062 C41.72198527 88.09094153 45.72982927 99.69594775 49.79901123 111.2822876 C57.01125566 131.82110692 63.99087738 152.4355094 70.94613647 173.06234741 C76.94184784 190.8425582 82.95910985 208.61206932 89.1875 226.3125 C95.67859409 244.7595077 101.93925487 263.28224381 108.1875 281.8125 C114.54106823 300.65475893 120.91202384 319.48802245 127.5 338.25 C132.83685852 353.46409129 138.11711467 368.69686006 143.32870483 383.95437622 C144.14356381 386.33735854 144.96060001 388.7195976 145.77993774 391.1010437 C146.91927026 394.41427774 148.05050712 397.73016952 149.1796875 401.046875 C149.520569 402.03335526 149.8614505 403.01983551 150.21266174 404.03620911 C154.75490923 417.46022167 155.45444002 430.56808689 149.6875 443.8125 C142.99716787 455.72869064 133.589839 461.97889768 120.6875 465.8125 C108.16437587 469.31839394 94.08243779 467.29358166 82.796875 461.26953125 C69.55854954 453.36632329 62.54927018 443.41705948 57.7265625 429.015625 C57.37290619 427.98677185 57.01924988 426.9579187 56.65487671 425.89788818 C55.53130038 422.6225674 54.42156536 419.34275919 53.3125 416.0625 C52.57645967 413.90723124 51.83948777 411.75228037 51.1015625 409.59765625 C50.04583754 406.51421839 48.99118544 403.4304871 47.94424438 400.34405518 C44.59448337 390.47455302 41.13128034 380.65187241 37.6875 370.8125 C-7.8525 370.4825 -53.3925 370.1525 -100.3125 369.8125 C-101.3025 373.4425 -102.2925 377.0725 -103.3125 380.8125 C-104.33894773 384.11632236 -105.3806879 387.40814321 -106.45703125 390.6953125 C-106.74930099 391.59385956 -107.04157074 392.49240662 -107.34269714 393.41818237 C-107.95741473 395.30589651 -108.57342101 397.19319145 -109.19067383 399.08007812 C-110.11568591 401.909015 -111.03569326 404.73954251 -111.95507812 407.5703125 C-114.76142588 416.18961746 -117.60459962 424.79612457 -120.578125 433.359375 C-120.81195389 434.04299103 -121.04578278 434.72660706 -121.28669739 435.43093872 C-125.76676597 448.1718604 -134.45584841 456.71730281 -146.3125 462.8125 C-147.50939453 463.43705078 -147.50939453 463.43705078 -148.73046875 464.07421875 C-159.00791215 468.61541467 -172.22127462 468.46345173 -182.875 465.1875 C-195.04916349 460.33141805 -204.59411662 453.40252941 -210.3046875 441.40234375 C-212.50400911 435.75059868 -213.60547221 430.69814211 -213.625 424.625 C-213.64175781 423.43519531 -213.65851562 422.24539063 -213.67578125 421.01953125 C-213.09016342 410.17962574 -208.66107319 399.71830116 -205.04858398 389.59179688 C-197.8372168 369.3549811 -190.95575297 349.0085479 -184.099617 328.64957428 C-177.13379698 307.96695818 -170.14634276 287.2963448 -162.89990234 266.70996094 C-156.71679508 249.12950212 -150.76678931 231.47137067 -144.8125 213.8125 C-138.29009108 194.46880632 -131.73444739 175.14094903 -124.95803833 155.8843689 C-119.26051887 139.67924319 -113.75969895 123.40915025 -108.27050781 107.13262939 C-93.38919764 63.009303 -93.38919764 63.009303 -88.16677856 47.91268921 C-87.61038595 46.30059562 -87.05722048 44.68738345 -86.50778198 43.07290649 C-80.88408235 26.56653521 -74.23504741 7.9891311 -58.3125 -1.1875 C-40.37728761 -9.79266057 -17.19596228 -11.13593943 0 0 Z M-30.3125 124.8125 C-30.46807373 125.8233667 -30.62364746 126.8342334 -30.78393555 127.87573242 C-31.38115466 131.74086882 -31.98977744 135.60414708 -32.60131836 139.46704102 C-32.86111541 141.11761933 -33.11809201 142.76864482 -33.37182617 144.42016602 C-36.41202259 164.17842069 -41.21495996 183.2653333 -47.20703125 202.32421875 C-47.76426582 204.11502651 -48.32086532 205.90603198 -48.87687683 207.69721985 C-50.32586104 212.35945285 -51.78298756 217.01909833 -53.24212646 221.67816162 C-54.70331332 226.34840371 -56.15710007 231.02094674 -57.61132812 235.69335938 C-59.83719037 242.84231063 -62.06531327 249.99055226 -64.29541016 257.13818359 C-65.30127668 260.36290276 -66.30694527 263.5876836 -67.3125 266.8125 C-67.54021843 267.54265572 -67.76793686 268.27281143 -68.00255585 269.02509308 C-69.3850596 273.4593666 -70.76241251 277.89520843 -72.13671875 282.33203125 C-72.63314629 283.92346199 -72.63314629 283.92346199 -73.13960266 285.54704285 C-73.43215439 286.4942067 -73.72470612 287.44137054 -74.02612305 288.41723633 C-74.27734421 289.22671219 -74.52856537 290.03618805 -74.78739929 290.87019348 C-75.3994933 292.79894222 -75.3994933 292.79894222 -75.3125 294.8125 C-45.9425 294.8125 -16.5725 294.8125 13.6875 294.8125 C13.00607275 290.04250924 12.32242285 286.14252146 10.96020508 281.62915039 C10.60456482 280.44148575 10.24892456 279.25382111 9.88250732 278.03016663 C9.49075557 276.74014081 9.09892794 275.45013804 8.70703125 274.16015625 C8.29755873 272.79888473 7.88857344 271.43746657 7.4800415 270.07591248 C6.61026015 267.1798558 5.73762242 264.28468162 4.86282349 261.39013672 C3.48992092 256.84554075 2.12662519 252.29809961 0.76538086 247.75 C0.30721861 246.21963099 -0.15095706 244.68926601 -0.60914612 243.15890503 C-0.83594118 242.40139828 -1.06273624 241.64389153 -1.29640388 240.86343002 C-4.03950825 231.70465026 -6.78834282 222.54759947 -9.54882812 213.39404297 C-23.11112609 168.38333762 -23.11112609 168.38333762 -26.3125 145.8125 C-26.62684111 143.7186353 -26.94195107 141.62488589 -27.2578125 139.53125 C-27.98500754 134.63010588 -28.66490258 129.72476335 -29.3125 124.8125 C-29.6425 124.8125 -29.9725 124.8125 -30.3125 124.8125 Z " fill="#4A4746" transform="translate(3307.3125,391.1875)"/>
<path d="M0 0 C7.13390597 6.43364526 11.99296005 13.56046517 14 23 C14.0873743 24.70243396 14.1220083 26.40793612 14.12025452 28.11260986 C14.12231651 29.66064804 14.12231651 29.66064804 14.12442017 31.23995972 C14.11902725 32.92957321 14.11902725 32.92957321 14.11352539 34.65332031 C14.11367142 35.84384003 14.11381744 37.03435974 14.1139679 38.26095581 C14.11339086 41.52096274 14.10837765 44.78092667 14.10139394 48.04092503 C14.09514008 51.449543 14.09455499 54.85816184 14.09336853 58.26678467 C14.09026121 64.71944884 14.08205589 71.17209605 14.07201904 77.62475276 C14.06083931 84.97174087 14.05534276 92.31872978 14.05032361 99.66572428 C14.03987279 114.77715896 14.02228493 129.88857779 14 145 C14.53334457 144.74241913 15.06668915 144.48483826 15.61619568 144.2194519 C18.07415851 143.03532043 20.5350869 141.85747867 22.99609375 140.6796875 C23.83474976 140.27451904 24.67340576 139.86935059 25.53747559 139.4519043 C44.63281004 130.3368549 64.43317267 127.4075419 85.4375 127.625 C86.24460419 127.62965271 87.05170837 127.63430542 87.88327026 127.63909912 C99.79052337 127.7194253 111.40216028 128.06226773 123 131 C123.80598633 131.19867676 124.61197266 131.39735352 125.44238281 131.60205078 C143.12861061 136.0959819 158.11030239 143.13383684 172 155 C172.67417969 155.57234375 173.34835937 156.1446875 174.04296875 156.734375 C194.1342701 175.30848425 201.84370073 203.95484603 203.16867447 230.36169815 C203.41352228 238.47995719 203.40326805 246.59849228 203.37004495 254.71968293 C203.35848535 258.22300737 203.36285607 261.72632192 203.36479187 265.22966003 C203.36566671 271.10001489 203.35476179 276.97025247 203.33618164 282.84057617 C203.31497699 289.57766655 203.31151965 296.31458625 203.3177436 303.05170327 C203.32348225 309.60524303 203.31774223 316.15872418 203.30657005 322.71225548 C203.3019882 325.4697652 203.30102168 328.22723832 203.3031559 330.98475075 C203.30659994 366.43476528 203.30659994 366.43476528 198.75 382.6875 C198.53311523 383.47729248 198.31623047 384.26708496 198.09277344 385.08081055 C191.07259201 409.73882334 176.02361832 430.4478212 155 445 C154.13665039 445.60086426 154.13665039 445.60086426 153.25585938 446.21386719 C138.37146773 456.34561077 120.64037157 462.69764614 103 466 C102.22156738 466.14808105 101.44313477 466.29616211 100.64111328 466.44873047 C75.5750965 470.97474205 47.98431864 471.049546 23 466 C22.16549316 465.83371094 21.33098633 465.66742187 20.47119141 465.49609375 C-2.80848521 460.67314137 -23.84922772 451.47662535 -42 436 C-42.87978516 435.33677734 -42.87978516 435.33677734 -43.77734375 434.66015625 C-61.6696208 420.80942884 -72.3448529 396.65921624 -76 375 C-77.00185378 366.66443704 -77.14617723 358.38936595 -77.14044189 350.00209045 C-77.14303135 348.61521541 -77.14604611 347.2283411 -77.1494453 345.8414678 C-77.15744963 342.0585554 -77.15930115 338.27566204 -77.16004276 334.49274218 C-77.16190473 330.40200146 -77.16945743 326.31127036 -77.17617798 322.22053528 C-77.18971233 313.290915 -77.19577759 304.36129925 -77.20018864 295.43167043 C-77.20295787 289.85126543 -77.2071963 284.27086214 -77.21169281 278.6904583 C-77.22387623 263.22411362 -77.23417921 247.75777031 -77.2375679 232.29142094 C-77.23778747 231.30320863 -77.23800703 230.31499632 -77.23823325 229.29683819 C-77.23845153 228.30635028 -77.23866981 227.31586237 -77.2388947 226.29535967 C-77.23933816 224.28845918 -77.23978472 222.28155869 -77.24023438 220.2746582 C-77.2404558 219.27917988 -77.24067723 218.28370156 -77.24090537 217.25805723 C-77.24485531 201.11992594 -77.26231946 184.98183974 -77.2855939 168.84372587 C-77.3093247 152.25473585 -77.32177044 135.66576845 -77.32293582 119.07676119 C-77.3238513 109.77060671 -77.32957217 100.4645111 -77.34775543 91.15837288 C-77.36317936 83.23700078 -77.36826314 75.31570578 -77.36001733 67.39432151 C-77.35611972 63.35634398 -77.35699698 59.31852163 -77.37107468 55.28056335 C-77.38386615 51.57758771 -77.38257055 47.87488302 -77.37048396 44.17190748 C-77.36761979 42.21188047 -77.37942247 40.25184855 -77.39190602 38.29185921 C-77.31952944 25.24916167 -74.92317491 13.6789211 -65.99609375 3.77734375 C-48.65250634 -12.82161737 -19.33400359 -13.77692471 0 0 Z M16.38409328 213.2268219 C14.36822277 215.80937721 14.61952319 217.76887402 14.61231995 221.01928711 C14.60241531 222.27805161 14.59251068 223.5368161 14.58230591 224.83372498 C14.58654436 226.23159887 14.59110226 227.62947183 14.59594727 229.02734375 C14.59024558 230.49760966 14.5832821 231.96787114 14.57514954 233.43812561 C14.5571691 237.43655645 14.558397 241.43476837 14.56409192 245.43322754 C14.56718034 248.77512379 14.56109436 252.11697778 14.55505317 255.45886803 C14.54099017 263.3513578 14.54258066 271.2437394 14.55395508 279.13623047 C14.56540586 287.26083571 14.55141616 295.38510968 14.5245586 303.50967121 C14.50233965 310.49415814 14.49577908 317.4785416 14.50163502 324.46306133 C14.50499495 328.63014836 14.50265557 332.79702368 14.48538399 336.96408081 C14.46982067 340.8909145 14.47397324 344.81726253 14.49268913 348.74407768 C14.49635094 350.17786001 14.49333759 351.61167902 14.48280334 353.04542732 C14.40090203 365.12445751 16.2309641 376.0989571 25 385 C36.47115697 394.83818032 51.23887555 398.6600636 66.21484375 398.24609375 C79.37001637 397.08371524 93.21986925 394.3723823 102.47265625 384.1015625 C111.00667405 372.35910323 112.30489412 360.13117959 112.2746582 346.00805664 C112.2823246 344.13261421 112.2823246 344.13261421 112.29014587 342.21928406 C112.30158491 338.82246256 112.30412843 335.42588675 112.30158257 332.02906346 C112.30050473 329.17896222 112.30541673 326.3288829 112.310188 323.47878641 C112.32124061 316.74829172 112.32174434 310.01785286 112.31567383 303.28735352 C112.30963449 296.37483826 112.32195375 289.46252657 112.3432439 282.55004603 C112.36093033 276.58534177 112.3668503 270.6207019 112.36360615 264.65597242 C112.36180466 261.10659607 112.36431495 257.55736504 112.37832069 254.00801277 C112.39337452 250.04570829 112.38386761 246.08365802 112.37231445 242.12133789 C112.37995819 240.96616669 112.38760193 239.81099548 112.39547729 238.62081909 C112.3165884 226.31182967 110.20198591 215.20198591 101.25390625 206.25390625 C78.43972136 187.23418039 37.55296269 197.15508191 16.38409328 213.2268219 Z " fill="#4A4746" transform="translate(1810,388)"/>
<path d="M0 0 C8.43902144 6.25282567 13.58879958 13.74628301 16 24 C16.3959401 28.07948435 16.38043257 32.12500457 16.34057617 36.22094727 C16.34123329 38.00782204 16.34123329 38.00782204 16.34190369 39.83079529 C16.34018211 43.0699873 16.32522411 46.3087813 16.30418181 49.54789472 C16.28532094 52.94312104 16.28365721 56.33835669 16.28010559 59.73362732 C16.27081257 66.15077513 16.24623637 72.56776808 16.21605712 78.98484796 C16.18242721 86.29565744 16.1660056 93.60647463 16.15097082 100.91734231 C16.11968403 115.94498088 16.06697749 130.97247489 16 146 C16.53334457 145.74241913 17.06668915 145.48483826 17.61619568 145.2194519 C20.07415851 144.03532043 22.5350869 142.85747867 24.99609375 141.6796875 C25.83474976 141.27451904 26.67340576 140.86935059 27.53747559 140.4519043 C35.15732005 136.81461484 42.80604939 134.04082689 51 132 C52.23105469 131.68160156 53.46210938 131.36320313 54.73046875 131.03515625 C76.38112 126.16463523 103.44502004 126.87009279 125 132 C126.21067139 132.28206299 126.21067139 132.28206299 127.44580078 132.56982422 C154.15098993 139.05647596 176.15086618 153.1937557 190.75 176.75 C202.09819477 197.36366202 205.15494225 220.22184014 205.14526367 243.45947266 C205.15030159 245.23289536 205.15030159 245.23289536 205.15544128 247.04214478 C205.1648704 250.91612831 205.16689042 254.79006824 205.16796875 258.6640625 C205.16939516 260.01210931 205.17099174 261.36015595 205.17275429 262.70820236 C205.18197431 269.77047905 205.18609354 276.83273702 205.18530273 283.89501953 C205.18470342 290.42510243 205.19523514 296.95510234 205.2110464 303.48516428 C205.22422699 309.1349016 205.22948224 314.78461215 205.22884732 320.43436468 C205.22859533 323.78940482 205.23223495 327.14431296 205.24202538 330.49934769 C205.33753946 366.6137288 205.33753946 366.6137288 200.6875 382.875 C200.35939331 384.06065552 200.35939331 384.06065552 200.0246582 385.27026367 C192.14018482 412.94366271 174.10842999 436.78768114 149 451 C123.10060979 465.29572076 94.55652361 470.22348743 65.25 470.25 C64.08914886 470.25151062 64.08914886 470.25151062 62.90484619 470.25305176 C50.06043287 470.24178269 37.63467587 469.4563713 25 467 C24.26797363 466.86609863 23.53594727 466.73219727 22.78173828 466.59423828 C0.34471329 462.39588364 -21.77341543 453.13940453 -39 438 C-40.22589844 436.98873047 -40.22589844 436.98873047 -41.4765625 435.95703125 C-61.99692769 418.51789736 -72.64338421 393.49458453 -75 367 C-75.50798327 356.78086558 -75.41743313 346.53960478 -75.39217401 336.31058824 C-75.38530989 332.18862179 -75.39590042 328.0666916 -75.40411377 323.94473267 C-75.41737327 315.89739517 -75.4146091 307.85014215 -75.40587585 299.8028015 C-75.39907211 293.26015879 -75.39819413 286.71753958 -75.4014473 280.17489433 C-75.401907 279.24008586 -75.40236669 278.30527738 -75.40284032 277.34214137 C-75.40379959 275.44257629 -75.40477223 273.54301121 -75.4057581 271.64344614 C-75.41428831 253.88205434 -75.40451347 236.12070919 -75.388357 218.35932504 C-75.37494052 203.13885943 -75.37729746 187.91846244 -75.39111328 172.69799805 C-75.40718444 154.98481968 -75.41348075 137.27168201 -75.40427649 119.55849737 C-75.40332092 117.66846336 -75.4023778 115.77842934 -75.4014473 113.88839531 C-75.40098447 112.95865524 -75.40052164 112.02891517 -75.40004479 111.07100116 C-75.39746066 104.53713697 -75.40181309 98.00329873 -75.40888596 91.46943855 C-75.41731757 83.50616163 -75.41498531 75.54297338 -75.39904372 67.57970656 C-75.39118571 63.52142928 -75.38802725 59.4632996 -75.39799118 55.40502357 C-75.40698913 51.6838504 -75.40192232 47.96296044 -75.38605852 44.24181264 C-75.38116767 42.27223527 -75.39086092 40.30263793 -75.40123022 38.33308178 C-75.31559065 25.27302545 -73.13109605 14.40841645 -63.890625 4.80859375 C-47.03538356 -10.97139953 -19.17659556 -13.20179806 0 0 Z M21 212 C19.71178801 212.85041728 19.71178801 212.85041728 18.39755154 213.71801472 C15.77660269 215.78874874 15.77660269 215.78874874 15.37917423 218.77842236 C15.38118556 219.85444871 15.38319689 220.93047506 15.38526917 222.03910828 C15.37550552 223.27689529 15.36574188 224.51468231 15.35568237 225.78997803 C15.37018827 227.15906277 15.38518904 228.52814234 15.40063477 229.8972168 C15.39877057 231.34131797 15.39473364 232.78541773 15.38868713 234.22950745 C15.37870303 238.15151283 15.39990224 242.07279667 15.42716718 245.99469733 C15.4510046 250.10377591 15.44805236 254.21284031 15.44847107 258.32197571 C15.45310153 265.22803949 15.47675087 272.13382792 15.51293945 279.03979492 C15.5545918 287.00931025 15.57224948 294.9785772 15.5755592 302.94819516 C15.57916933 311.44528885 15.59806796 319.94229386 15.62267947 328.43935037 C15.62888949 330.88013193 15.63253768 333.32090673 15.63571358 335.76169395 C15.64164836 339.61047554 15.65805551 343.45908248 15.68231773 347.30779076 C15.6897112 348.71498767 15.69382663 350.1222065 15.69429779 351.52942276 C15.70323444 365.09099317 17.17587827 376.00819317 26.6875 386.25 C35.56299046 394.61024663 48.00107188 398.25006699 60 399 C60.78375 399.05285156 61.5675 399.10570312 62.375 399.16015625 C75.87268894 399.62213072 91.25156957 396.99857311 101.5625 387.625 C111.38038257 376.52652405 113.45953396 364.73604243 113.38818359 350.33374023 C113.39225917 348.99860202 113.39760653 347.6634672 113.40411377 346.32833862 C113.41767493 342.73537221 113.41253601 339.14266708 113.40297651 335.54969668 C113.39532285 331.77075983 113.40244109 327.99184372 113.40713501 324.21290588 C113.41257541 317.87081938 113.40544553 311.52883807 113.39111328 305.18676758 C113.37478297 297.8765802 113.38008488 290.56664384 113.3965925 283.25646251 C113.41024807 276.95462868 113.41210743 270.65286998 113.40427649 264.35102612 C113.39962316 260.59828365 113.39891023 256.84565882 113.40888596 253.09292412 C113.41761323 249.56411351 113.41142996 246.03562368 113.39420319 242.50684738 C113.38840698 240.60997191 113.39720396 238.71306901 113.40658569 236.81620789 C113.32929852 226.30423243 111.83460425 217.03351121 104.28125 209.22265625 C92.85044072 198.49493246 78.88219549 197.43187665 63.859375 197.75 C48.16838941 198.37117916 34.00691549 203.18595501 21 212 Z " fill="#4A4746" transform="translate(2159,387)"/>
<path d="M0 0 C14.61292569 13.76397681 24.45664494 30.22240885 30.25 49.40625 C30.44505127 50.04997559 30.64010254 50.69370117 30.84106445 51.35693359 C33.84235497 62.00377008 34.73688014 72.76315777 34.72802734 83.78149414 C34.73474457 85.00947723 34.74146179 86.23746033 34.74838257 87.50265503 C34.76398636 90.83171121 34.77072945 94.16051766 34.77201414 97.48959279 C34.77344832 99.58219323 34.77774157 101.67476848 34.78300858 103.76736259 C34.80144582 111.10428367 34.80968755 118.4411327 34.80810547 125.77807617 C34.80690727 132.55760742 34.82796251 139.33681871 34.8595928 146.11626917 C34.88597374 151.98517533 34.89646368 157.85397844 34.89519465 163.72294325 C34.89469116 167.20665163 34.90002539 170.6900753 34.92155075 174.17372322 C35.11997472 208.70692551 28.36403543 238.24033031 5.4375 264.78125 C4.79296875 265.52890625 4.1484375 266.2765625 3.484375 267.046875 C-18.07551602 290.10658452 -50.10940965 300.68461335 -80.5625 304.78125 C-81.68301758 304.93376221 -81.68301758 304.93376221 -82.82617188 305.08935547 C-90.95765537 306.0485149 -99.13593632 306.02483428 -107.3125 306.03125 C-108.08739777 306.03192474 -108.86229553 306.03259949 -109.66067505 306.03329468 C-122.49640321 306.01560117 -134.94833014 305.33068238 -147.5625 302.78125 C-148.39700684 302.61496094 -149.23151367 302.44867187 -150.09130859 302.27734375 C-180.90504235 295.89352782 -210.64764833 280.88223454 -229.375 254.78125 C-230.45679809 253.12704418 -231.5191213 251.45995335 -232.5625 249.78125 C-233.14515625 248.88148438 -233.7278125 247.98171875 -234.328125 247.0546875 C-246.24773579 227.82783706 -250.699783 205.53290668 -250.72363281 183.15307617 C-250.72859772 182.02321289 -250.73356262 180.89334961 -250.73867798 179.72924805 C-250.75321676 176.0108986 -250.76008971 172.29259189 -250.765625 168.57421875 C-250.76845238 167.29456049 -250.77127975 166.01490223 -250.77419281 164.69646645 C-250.78761843 158.61385558 -250.79751963 152.53126349 -250.8013947 146.44863909 C-250.8058562 139.48835105 -250.82332478 132.52826127 -250.8523953 125.5680334 C-250.87687065 119.49134689 -250.88435133 113.41474028 -250.88607025 107.33800697 C-250.88906825 104.77835324 -250.89699828 102.21869975 -250.91025543 99.6590786 C-251.04274925 72.09873077 -248.03133576 48.1107557 -234.5625 23.78125 C-234.01851562 22.79382813 -233.47453125 21.80640625 -232.9140625 20.7890625 C-217.26954968 -5.53950786 -189.03738578 -22.27749159 -160.0625 -30.03125 C-106.70894442 -43.53792053 -42.08039635 -38.44494094 0 0 Z M-148.5625 55.78125 C-156.87722096 65.42762549 -159.02024529 75.05134314 -158.96655273 87.55810547 C-158.97341599 88.69121155 -158.98027924 89.82431763 -158.98735046 90.99176025 C-159.0055444 94.71078274 -159.00179114 98.42938036 -158.99609375 102.1484375 C-159.00065925 104.75098812 -159.00596592 107.35353753 -159.01197815 109.95608521 C-159.02197809 115.40126557 -159.01873891 120.84632695 -159.00854492 126.29150391 C-158.99707315 132.55708612 -159.01113426 138.8222398 -159.0379414 145.08776557 C-159.06289363 151.15010454 -159.06525526 157.21224793 -159.05882454 163.2746315 C-159.05867182 165.83810259 -159.06467538 168.40158213 -159.07711601 170.96502304 C-159.09210091 174.55886864 -159.08129253 178.15178757 -159.06420898 181.74560547 C-159.07387695 182.79013885 -159.08354492 183.83467224 -159.09350586 184.91085815 C-158.97919952 196.47517187 -155.68578402 206.40776216 -147.5625 214.78125 C-135.42592013 226.26250698 -119.28426041 228.37689092 -103.32421875 228.02734375 C-90.12987259 227.49830653 -77.59651891 223.61644177 -67.5625 214.78125 C-58.35651211 203.9031541 -56.41689073 192.95926422 -56.40136719 179.08520508 C-56.39640228 178.01935181 -56.39143738 176.95349854 -56.38632202 175.85534668 C-56.37174476 172.33715157 -56.36490543 168.81900157 -56.359375 165.30078125 C-56.35361949 162.84706115 -56.34786181 160.39334106 -56.34210205 157.93962097 C-56.33160439 152.79592683 -56.32575377 147.65224826 -56.32226562 142.50854492 C-56.31678643 135.93614927 -56.29276518 129.36396135 -56.26429367 122.79163074 C-56.24561605 117.72223826 -56.24045894 112.65289528 -56.23892975 107.5834713 C-56.2359138 105.16151482 -56.22792125 102.739559 -56.21474457 100.31763649 C-56.19757865 96.91968879 -56.1995903 93.52224174 -56.20605469 90.12426758 C-56.1968399 89.13530991 -56.18762512 88.14635223 -56.1781311 87.12742615 C-56.24854943 75.23640683 -59.53971002 64.17924871 -67.5 55.15625 C-74.59457513 48.49635344 -84.97306505 44.00927557 -94.5625 42.78125 C-95.29855469 42.67296875 -96.03460937 42.5646875 -96.79296875 42.453125 C-114.68771272 40.11233233 -135.29210083 42.45901334 -148.5625 55.78125 Z " fill="#4A4746" transform="translate(1627.5625,551.21875)"/>
<path d="M0 0 C0.88023834 0.00215515 1.76047668 0.0043103 2.66738892 0.00653076 C15.73390082 0.0578342 28.52788529 0.351683 41.3125 3.3125 C42.58649658 3.60253906 42.58649658 3.60253906 43.88623047 3.8984375 C72.02821027 10.56242541 97.02274229 24.30229547 113.25 48.875 C129.81709919 75.82744495 133.97480268 110.73416846 126.81298828 141.35888672 C122.63857626 157.65334769 115.1548011 170.60850315 103.3125 182.3125 C102.34376953 183.29669922 102.34376953 183.29669922 101.35546875 184.30078125 C74.27214778 209.96798086 30.47127089 213.0645701 -4.84033203 212.26367188 C-9.81559875 212.09719223 -14.78241324 211.81885865 -19.75 211.5 C-21.04945557 211.4177417 -22.34891113 211.3354834 -23.68774414 211.25073242 C-31.76550879 210.67393532 -39.70526352 209.67495186 -47.6875 208.3125 C-47.63499106 212.58428321 -47.53976939 216.85414126 -47.4375 221.125 C-47.42332031 222.32060547 -47.40914062 223.51621094 -47.39453125 224.74804688 C-47.11384537 235.04921873 -45.3745795 244.7992389 -37.9765625 252.46484375 C-22.31591889 265.10560216 -1.57246458 265.73894524 17.61865234 264.11767578 C33.87028935 262.30700125 49.72032611 256.2505797 64.5 249.4765625 C75.65989354 244.85760656 91.50876223 245.998556 102.61328125 250.05078125 C106.71371653 251.96748254 110.03081632 254.20353651 113.3125 257.3125 C113.86550781 257.82554687 114.41851563 258.33859375 114.98828125 258.8671875 C122.06914118 266.21160301 123.97412966 275.3779932 123.84887695 285.32446289 C123.28222376 297.09825701 117.795604 305.48509486 109.3125 313.3125 C75.93529738 341.96372703 18.48354497 343.86749293 -23.07958984 341.08544922 C-59.14597226 337.81925551 -92.48471367 323.44397824 -116.59765625 295.8984375 C-125.17195566 285.28874366 -131.57448813 272.85494631 -135.5 259.8125 C-135.69480957 259.1736084 -135.88961914 258.5347168 -136.09033203 257.87646484 C-139.20350896 246.80891514 -139.98692146 235.4418547 -139.9621582 223.99926758 C-139.96726913 222.75002502 -139.97238007 221.50078247 -139.97764587 220.21368408 C-139.98905238 216.83103191 -139.99163341 213.44862719 -139.98908257 210.06597352 C-139.98800077 207.21886696 -139.99292695 204.37178214 -139.997688 201.52468032 C-140.0087262 194.79337333 -140.00925361 188.06212217 -140.00317383 181.33081055 C-139.997146 174.44166101 -140.00942784 167.55271632 -140.0307439 160.6636017 C-140.04850025 154.70042609 -140.05433921 148.73731483 -140.05110615 142.77411383 C-140.04931448 139.23406016 -140.05171236 135.69415245 -140.06582069 132.15412331 C-140.20024704 95.30443129 -140.20024704 95.30443129 -134 78.0625 C-133.74436279 77.3312793 -133.48872559 76.60005859 -133.2253418 75.84667969 C-128.32672896 62.37293922 -121.02736829 51.12480503 -111.6875 40.3125 C-110.72070312 39.19101562 -110.72070312 39.19101562 -109.734375 38.046875 C-93.10941012 20.26539082 -69.41523255 10.23879169 -46.1875 4.5625 C-45.38223877 4.36374268 -44.57697754 4.16498535 -43.74731445 3.96020508 C-29.2330205 0.6078788 -14.82735682 -0.06546449 0 0 Z M-39.19140625 85.33203125 C-45.66008942 93.89501393 -48.02872473 103.42150256 -47.8828125 113.96875 C-47.8799826 114.75648804 -47.87715271 115.54422607 -47.87423706 116.35583496 C-47.86315169 118.84155264 -47.8380701 121.3268935 -47.8125 123.8125 C-47.8024551 125.51041142 -47.79333191 127.20832855 -47.78515625 128.90625 C-47.76325071 133.04180914 -47.72880326 137.17709096 -47.6875 141.3125 C-33.55147072 142.59837081 -19.44837889 143.52893394 -5.25 143.625 C-4.0741333 143.64240234 -2.8982666 143.65980469 -1.68676758 143.67773438 C9.82063335 143.67118724 22.51847382 141.98733274 31.09375 133.5625 C39.68434273 123.11903432 39.23028768 110.1643342 38.3125 97.3125 C37.27926825 89.68892517 33.90376347 83.61058861 28.3125 78.3125 C19.57745671 72.4796535 10.35411757 70.93459114 0.0625 71 C-1.328479 71.00845947 -1.328479 71.00845947 -2.74755859 71.01708984 C-16.44554664 71.25908683 -29.615926 74.92989083 -39.19140625 85.33203125 Z " fill="#4A4746" transform="translate(2737.6875,515.6875)"/>
<path d="M0 0 C10.05262814 10.58907929 10.5492766 23.9056289 10.50828552 37.71792603 C10.51114332 39.23450826 10.51488304 40.75108904 10.51942402 42.26766717 C10.52937066 46.41822248 10.52704076 50.56869293 10.52269709 54.71925449 C10.52021478 59.20189972 10.52929682 63.68452298 10.53707886 68.16716003 C10.54910868 75.92961635 10.55423098 83.69205216 10.55496025 91.45451736 C10.55628717 102.6852926 10.57140951 113.91601811 10.59045542 125.14677577 C10.62127891 143.37909436 10.64545394 161.61141422 10.66333008 179.84375 C10.6649391 181.4796949 10.6649391 181.4796949 10.66658062 183.1486892 C10.67840519 195.32135402 10.68861081 207.49401935 10.69702148 219.66668701 C10.70009557 224.08345542 10.70318433 228.50022381 10.70629883 232.91699219 C10.70744684 234.55184975 10.70744684 234.55184975 10.70861804 236.21973474 C10.72169546 254.38728377 10.74632701 272.5547967 10.78004223 290.72231901 C10.80033725 301.92649654 10.81062093 313.13059691 10.80805302 324.33479296 C10.80701864 332.0083636 10.81664376 339.68187318 10.83469205 347.35542251 C10.84474417 351.7836275 10.84985741 356.21169739 10.84192467 360.63990974 C10.83474892 364.69367564 10.84132132 368.74717828 10.85881007 372.80091064 C10.86269396 374.26710457 10.86151506 375.73332251 10.85475319 377.199506 C10.80979799 387.78700829 11.56347309 394.03007202 18.5625 402.25 C19.35398437 403.19101562 20.14546875 404.13203125 20.9609375 405.1015625 C22.33188258 406.68774128 23.70979515 408.26799707 25.1015625 409.8359375 C25.62492187 410.42632813 26.14828125 411.01671875 26.6875 411.625 C27.13996094 412.11742187 27.59242188 412.60984375 28.05859375 413.1171875 C33.06193353 419.97422365 31.99127171 429.68511545 31.25 437.75 C30.46162151 441.25285532 29.29446245 443.81451809 27.25 446.75 C26.78722656 447.44222656 26.32445313 448.13445312 25.84765625 448.84765625 C19.23084534 457.50289791 8.91694154 461.34436892 -1.5234375 463.27734375 C-21.87824529 465.92336834 -41.8432739 464.26928544 -58.953125 452.1953125 C-72.76529069 441.17721086 -78.48572083 422.26894809 -80.53760076 405.3651309 C-81.02550951 399.35783426 -80.90223787 393.3142992 -80.90390015 387.29058838 C-80.90791965 385.70831182 -80.91235868 384.12603629 -80.9171797 382.54376197 C-80.92909571 378.2068005 -80.934782 373.86985014 -80.93936086 369.53287554 C-80.94533553 364.85107228 -80.9569403 360.16928216 -80.96765137 355.48748779 C-80.99212711 344.18922786 -81.00679251 332.8909636 -81.01971143 321.59268534 C-81.02342596 318.4005411 -81.02739895 315.20839729 -81.0314641 312.01625347 C-81.05669592 292.1816889 -81.07874277 272.3471236 -81.09119225 252.51254654 C-81.09412178 247.92275235 -81.09708347 243.33295819 -81.10009766 238.74316406 C-81.10084371 237.60243973 -81.10158976 236.46171539 -81.10235842 235.28642365 C-81.11501656 216.80072637 -81.14824955 198.31512516 -81.18989949 179.82947281 C-81.23233235 160.84043258 -81.25588856 141.85144155 -81.26111281 122.86235404 C-81.26452464 112.20466132 -81.27625371 101.54711896 -81.30921555 90.88947296 C-81.33723527 81.8151719 -81.34820671 72.74105208 -81.33702008 63.66671112 C-81.33183907 59.03931512 -81.33468424 54.41229858 -81.35948563 49.78495789 C-81.38202991 45.54326679 -81.38119845 41.30222662 -81.36228175 37.06052372 C-81.35948905 35.53161374 -81.36503955 34.00265912 -81.38009469 32.47382072 C-81.50447021 19.01337258 -78.66922287 8.74500835 -69.12890625 -1.0625 C-49.24516625 -19.34639885 -19.59361581 -17.90814348 0 0 Z " fill="#4A4746" transform="translate(2515.75,393.25)"/>
<path d="M0 0 C7.46160158 7.35837784 12.47045549 15.78480629 13.25299966 26.44719195 C13.25440851 27.66582722 13.25581736 28.88446249 13.25726891 30.14002609 C13.26077498 30.82691041 13.26428105 31.51379473 13.26789337 32.22149372 C13.27717466 34.5161321 13.27229261 36.81051486 13.26742554 39.10516357 C13.27116345 40.76978678 13.27576554 42.43440824 13.28115618 44.09902692 C13.29338417 48.66823071 13.29312595 53.23736127 13.29076743 57.80657768 C13.29035921 62.73651125 13.30139889 67.66642136 13.31088257 72.59634399 C13.32749249 82.25320922 13.33299211 91.91005004 13.33410732 101.56692836 C13.33505781 109.41707168 13.33916813 117.26720694 13.34550858 125.11734772 C13.36312103 147.37663395 13.37234745 169.63590089 13.37084763 191.89519414 C13.37076772 193.09509258 13.3706878 194.29499101 13.37060547 195.53125 C13.37052371 196.73261444 13.37044195 197.93397888 13.37035771 199.17174831 C13.36954482 218.641083 13.38868307 238.11034032 13.4168822 257.57965264 C13.44561206 277.57324228 13.45942244 297.5667942 13.45769465 317.56040502 C13.45703078 328.7842277 13.46252177 340.00796929 13.48405075 351.23177338 C13.50226386 360.78810922 13.50660878 370.34432719 13.4930319 379.90067288 C13.48650293 384.77495817 13.4863826 389.64901733 13.5037384 394.5232811 C13.51947716 398.98940307 13.51659727 403.45511976 13.49917014 407.9212319 C13.49610202 409.53291881 13.49972554 411.14463603 13.51089029 412.75628719 C13.60817721 427.80180106 10.63229797 437.9202395 0.19140625 448.90234375 C-8.97587326 457.61221222 -20.3241702 461.8097492 -32.8125 462.3125 C-45.88143219 461.96426826 -58.66794805 457.33205195 -68 448 C-76.46602155 437.57597788 -80.12062892 427.48245832 -80.12863445 414.04738235 C-80.13038749 413.38075852 -80.13214053 412.71413469 -80.13394669 412.02731013 C-80.13858515 409.80165327 -80.13614677 407.57606235 -80.13371277 405.35040283 C-80.13558183 403.73527878 -80.13788291 402.12015518 -80.14057809 400.5050323 C-80.14669078 396.07266239 -80.14656312 391.64031136 -80.14538372 387.20793819 C-80.14517957 382.42525378 -80.15069976 377.6425754 -80.15544128 372.8598938 C-80.16374554 363.49179299 -80.16649603 354.12369847 -80.16705366 344.75559428 C-80.16752894 337.1400074 -80.16958427 329.52442259 -80.17275429 321.90883636 C-80.18156033 300.31360351 -80.18617375 278.71837562 -80.18542381 257.12314096 C-80.18538386 255.95908648 -80.1853439 254.79503199 -80.18530273 253.59570312 C-80.18526185 252.43022606 -80.18522097 251.26474899 -80.18517885 250.06395444 C-80.18477242 231.17663181 -80.19434139 212.28932912 -80.2084411 193.40201226 C-80.2228069 174.00507326 -80.22971117 154.60814398 -80.22884732 135.21119952 C-80.22851542 124.32274963 -80.23125963 113.43432065 -80.24202538 102.54587555 C-80.25113305 93.27502929 -80.25330342 84.00421341 -80.24651595 74.73336461 C-80.24325208 70.00495979 -80.24318929 65.27661323 -80.2518692 60.54821396 C-80.25974096 56.21542516 -80.25829584 51.88274078 -80.24958507 47.5499545 C-80.24805157 45.98672084 -80.24986055 44.42347936 -80.25544515 42.86025491 C-80.30925992 26.72119368 -78.83920113 12.91860475 -67.375 0.625 C-48.55495923 -17.05787818 -18.95827775 -17.30207133 0 0 Z " fill="#4A4746" transform="translate(3591,397)"/>
<path d="M0 0 C2.88027376 2.88027376 3.34176663 6.34206598 4.3125 10.1875 C4.5283374 11.0333667 4.7441748 11.8792334 4.96655273 12.75073242 C5.65765936 15.49738689 6.33145059 18.24777282 7 21 C7.32387695 22.31919434 7.32387695 22.31919434 7.65429688 23.66503906 C15.74856949 57.1123449 25.63499049 103.24306022 7 135 C3.06804946 138.56404873 -0.65047791 139.37608728 -5.94921875 139.26953125 C-11.0115829 138.60419196 -14.04040986 135.17375961 -17.0625 131.375 C-21.84834667 124.59399825 -25.7049425 118.52510458 -25 110 C-23.93359375 107.2109375 -23.93359375 107.2109375 -22.4375 104.375 C-7.61685976 73.85986102 -2.85806397 39.22363167 -1.23364258 5.72949219 C-1 3 -1 3 0 0 Z " fill="#FBFDFD" transform="translate(604,729)"/>
<path d="M0 0 C0.33 0 0.66 0 1 0 C1.12060791 1.48826294 1.12060791 1.48826294 1.24365234 3.0065918 C1.54837575 6.75128929 1.85927614 10.49545436 2.171875 14.23950195 C2.30534921 15.84809081 2.43723368 17.45681253 2.56738281 19.06567383 C3.35462079 28.78200721 4.32112267 38.38826334 6 48 C6.14953125 48.86407471 6.2990625 49.72814941 6.453125 50.6184082 C9.75286585 69.03526932 15.64944302 86.14214822 22.01171875 103.703125 C22.34647217 104.62770508 22.68122559 105.55228516 23.02612305 106.50488281 C23.9393353 108.98047359 23.9393353 108.98047359 25.12426758 111.14355469 C26.58579583 114.24181531 25.96031415 116.85511155 25 120 C21.91185361 127.40350405 18.22018974 135.79175839 11.125 140.15234375 C8.68432946 141.12592005 6.74970382 141.3679985 4.125 141.4375 C3.30257812 141.47746094 2.48015625 141.51742187 1.6328125 141.55859375 C-2.12814296 140.76064623 -4.52554942 138.83358774 -7 136 C-8.33531604 133.44635074 -9.33425462 131.24946415 -10.25 128.5625 C-10.49959473 127.84932617 -10.74918945 127.13615234 -11.00634766 126.40136719 C-23.92037919 87.89064541 -11.86037672 37.62216623 0 0 Z " fill="#FCFDFD" transform="translate(205,727)"/>
<path d="M0 0 C6.95715992 4.0196924 11.49033031 10.30472139 14.15625 17.796875 C16.35973045 26.87311589 15.29802319 36.71082643 10.453125 44.7578125 C6.62137176 50.11041625 2.3343272 54.72131985 -4.1875 56.5 C-10.69256967 57.32405873 -15.83074083 56.36500345 -21.1875 52.5 C-28.49790884 45.52037889 -32.18456409 37.82394696 -32.5625 27.75 C-32.33922843 17.81441523 -29.10698907 10.42669005 -22.1875 3.31640625 C-15.86522543 -2.42550327 -7.84027537 -3.42536303 0 0 Z " fill="#37BBB5" transform="translate(476.1875,500.5)"/>
<path d="M0 0 C7.05192639 4.13060814 12.33246489 10.25063103 14.71484375 18.125 C15.16800042 21.24032146 15.23868382 24.29249331 15.21484375 27.4375 C15.21129883 28.27619629 15.20775391 29.11489258 15.20410156 29.97900391 C15.02492896 36.6720096 13.66433066 41.62556909 9.71484375 47.125 C9.13734375 48.053125 8.55984375 48.98125 7.96484375 49.9375 C3.29614019 54.47651735 -1.75736167 57.3945912 -8.34765625 57.75 C-15.35157113 57.34822504 -19.97490667 53.78164143 -24.59765625 48.75 C-30.65065767 41.18374823 -32.02950665 32.59479116 -31.28515625 23.125 C-29.77405101 14.63463748 -26.01656293 8.50103462 -19.66015625 2.75 C-13.6132875 -1.38733125 -7.07250951 -2.7081062 0 0 Z " fill="#36BBB5" transform="translate(348.28515625,499.875)"/>
</svg>
