<?xml version="1.0" encoding="UTF-8"?>
<svg version="1.1" xmlns="http://www.w3.org/2000/svg" width="813" height="1212">
<path d="M0 0 C1.02419271 -0.00297112 2.04838542 -0.00594224 3.10361427 -0.0090034 C6.50511476 -0.01761303 9.90657973 -0.01919207 13.30809021 -0.02069092 C15.76010715 -0.02532479 18.21212339 -0.03035021 20.66413879 -0.03573608 C27.3075846 -0.04881231 33.9510167 -0.05533434 40.59447217 -0.05974674 C44.75651439 -0.06252246 48.91855434 -0.0667623 53.08059502 -0.07125092 C64.64204162 -0.08343799 76.20348642 -0.09373627 87.76493931 -0.09712601 C88.87250736 -0.09745536 88.87250736 -0.09745536 90.00245052 -0.09779136 C90.74244132 -0.09800964 91.48243212 -0.09822791 92.24484688 -0.09845281 C93.74395533 -0.09889625 95.24306379 -0.09934281 96.74217224 -0.09979248 C97.48575719 -0.10001391 98.22934214 -0.10023534 98.99545997 -0.10046348 C111.00819662 -0.10440024 123.02087219 -0.12182237 135.03358532 -0.145152 C147.41673738 -0.16900333 159.799859 -0.18133418 172.18303436 -0.18249393 C179.11537917 -0.18340335 186.04764451 -0.18896737 192.97996712 -0.20731354 C199.51606248 -0.22455193 206.05204838 -0.22586558 212.58816147 -0.21717453 C214.96545122 -0.21641332 217.34274959 -0.2206231 219.72001839 -0.23063278 C240.81425254 -0.31412335 261.81971728 1.19374351 282.43479919 5.89044189 C283.59076599 6.14793213 284.74673279 6.40542236 285.93772888 6.67071533 C311.62557519 12.54766561 335.99799935 21.73042069 359.24729919 34.14044189 C359.96047302 34.51636475 360.67364685 34.8922876 361.40843201 35.27960205 C411.18417852 61.63464079 452.70373567 103.17935074 480.24729919 152.14044189 C480.71232849 152.96205811 481.17735779 153.78367432 481.65647888 154.63018799 C499.56463097 186.5929185 511.1819735 221.86641945 516.24729919 258.14044189 C516.33838959 258.78719879 516.42947998 259.43395569 516.52333069 260.10031128 C518.54534499 274.97937063 518.60576097 289.83371267 518.55979919 304.82794189 C518.55764404 306.09044769 518.55548889 307.35295349 518.55326843 308.65371704 C518.50029842 328.00047684 517.99870757 346.96957759 515.24729919 366.14044189 C515.15019653 366.83216492 515.05309387 367.52388794 514.95304871 368.23657227 C509.05180095 410.15848397 498.39822524 450.76382544 480.24729919 489.14044189 C479.76035583 490.17330322 479.27341248 491.20616455 478.77171326 492.27032471 C455.692833 540.77237527 423.07728166 579.62042399 385.24729919 617.14044189 C386.87150359 621.28884005 389.900423 624.01272866 393.03245544 627.05059814 C393.89513283 627.90191566 393.89513283 627.90191566 394.77523804 628.77043152 C397.22347767 631.18623784 399.68312534 633.59029244 402.14256287 635.99468994 C409.69163043 643.38930088 416.69913544 650.83208446 423.24729919 659.14044189 C424.18142908 660.24282088 425.12276641 661.33919066 426.07542419 662.42559814 C476.38334457 720.11742296 506.22470414 795.77981231 516.24729919 871.14044189 C516.36299255 871.93821045 516.47868591 872.735979 516.59788513 873.55792236 C524.8123646 930.90083915 511.39493961 990.46318299 484.24729919 1041.14044189 C483.85542419 1041.87488525 483.46354919 1042.60932861 483.05979919 1043.36602783 C465.07638356 1076.87418899 440.10011022 1108.40360791 410.24729919 1132.14044189 C409.40940857 1132.84555908 408.57151794 1133.55067627 407.70823669 1134.27716064 C354.56415128 1178.99204822 286.15022514 1200.72211266 217.30589294 1200.52862549 C214.82063061 1200.53270439 212.33537009 1200.53805356 209.85011292 1200.54455566 C203.86866597 1200.55668346 197.8873768 1200.55509163 191.90593648 1200.54631774 C187.03402744 1200.53947424 182.16214992 1200.53865281 177.29023743 1200.54188919 C176.59035027 1200.54234889 175.89046311 1200.54280859 175.16936725 1200.54328222 C173.74647688 1200.54424163 172.32358651 1200.54521428 170.90069616 1200.54619999 C157.63454805 1200.55470473 144.36846266 1200.5449977 131.10232484 1200.52879889 C119.77985006 1200.51540022 108.45746763 1200.51772971 97.13499451 1200.53155518 C83.90837752 1200.54769873 70.68181517 1200.55388122 57.4551897 1200.54471838 C56.0382468 1200.54376298 54.62130388 1200.54281987 53.20436096 1200.54188919 C52.15928136 1200.54119495 52.15928136 1200.54119495 51.09308904 1200.54048669 C46.24090418 1200.53792294 41.38875469 1200.54221042 36.53657532 1200.54932785 C29.97647498 1200.55874132 23.41651938 1200.55180805 16.85642624 1200.53464508 C14.47064878 1200.53072946 12.08485648 1200.53172786 9.69908524 1200.53843307 C-62.76046522 1200.72306793 -132.81853407 1174.13582979 -186.42457581 1125.24981689 C-188.48423114 1123.38368622 -190.57658975 1121.56974401 -192.69020081 1119.76544189 C-200.61884627 1112.84793948 -208.04874598 1105.24786694 -214.75270081 1097.14044189 C-215.17100159 1096.63593506 -215.58930237 1096.13142822 -216.02027893 1095.6116333 C-258.6227786 1043.98795064 -287.00432316 978.4995126 -286.88412857 910.80474854 C-286.8861812 909.7128327 -286.88823384 908.62091686 -286.89034867 907.49591267 C-286.89599026 903.84746299 -286.89456494 900.1990514 -286.8931427 896.55059814 C-286.89572798 893.90397439 -286.89870308 891.25735364 -286.9021461 888.61073112 C-286.90969965 882.10625487 -286.91191781 875.60178683 -286.91247516 869.09730665 C-286.91339145 861.30206524 -286.92006695 853.50683135 -286.92682198 845.7115932 C-286.94285892 826.87137119 -286.94878312 808.03115002 -286.95357073 789.19092242 C-286.95590949 780.26992297 -286.9595125 771.34892416 -286.96326611 762.42792521 C-286.976101 731.86341941 -286.98681911 701.29891396 -286.99026871 670.73440552 C-286.99049034 668.81676598 -286.99071212 666.89912645 -286.99093406 664.98148692 C-286.9911547 663.0593253 -286.99137518 661.13716368 -286.99159551 659.21500206 C-286.99203805 655.35909398 -286.99248517 651.50318591 -286.99293518 647.64727783 C-286.99304457 646.69124138 -286.99315396 645.73520493 -286.99326667 644.75019768 C-286.99689422 613.77725919 -287.01280317 582.80434415 -287.03612554 551.83141464 C-287.06076346 519.0511687 -287.07444343 486.27093616 -287.07563663 453.49068069 C-287.07580807 449.8867925 -287.07602349 446.28290431 -287.07627106 442.67901611 C-287.07635471 441.34804064 -287.07635471 441.34804064 -287.07644005 439.99017677 C-287.0775872 425.75570847 -287.08858068 411.52126436 -287.10315811 397.28680421 C-287.11757863 382.9568571 -287.12072895 368.62694075 -287.11271814 354.29698837 C-287.10828757 345.80202234 -287.11201831 337.30715615 -287.12795664 328.81220339 C-287.13779986 323.11562732 -287.1364407 317.4191202 -287.12652041 311.72254457 C-287.12119455 308.49119464 -287.12191928 305.26006891 -287.13302913 302.02872849 C-287.40325618 218.02954368 -254.59059501 142.32879832 -195.75270081 82.95294189 C-189.71147239 76.9243535 -183.50824208 71.36543085 -176.75270081 66.14044189 C-175.4387514 65.07712629 -174.12637858 64.01186084 -172.81520081 62.94512939 C-125.18533444 24.55416098 -61.53128014 -0.05704456 0 0 Z " fill="#34BBB5" transform="translate(292.75270080566406,5.85955810546875)"/>
<path d="M0 0 C4.2950101 2.19852569 6.86663612 4.95079615 8.80859375 9.30078125 C9.53178382 14.72843459 9.99980511 20.25510252 6.87109375 24.98828125 C4.80859375 27.30078125 4.80859375 27.30078125 3.80859375 28.30078125 C2.67802774 38.70198855 8.32604266 47.87592774 13.80859375 56.30078125 C14.99453125 55.73230469 16.18046875 55.16382813 17.40234375 54.578125 C21.68901088 52.52933715 25.98536782 50.50179418 30.28710938 48.48486328 C31.82934094 47.76063564 33.37008807 47.03322268 34.90820312 46.30029297 C89.45179526 20.4045967 156.70939423 19.51965426 213.24609375 39.42578125 C222.98151151 42.95558184 232.31375117 47.17044861 241.55053711 51.84619141 C242.44651611 52.29655762 243.34249512 52.74692383 244.265625 53.2109375 C245.0491333 53.61449463 245.8326416 54.01805176 246.63989258 54.43383789 C249.03837053 55.54824286 249.03837053 55.54824286 252.80859375 55.30078125 C253.94236295 53.28485472 255.06521016 51.26278378 256.18359375 49.23828125 C256.81007813 48.11292969 257.4365625 46.98757813 258.08203125 45.828125 C260.88545882 40.10076054 262.51945577 34.69853946 261.80859375 28.30078125 C259.97731265 25.48978711 259.97731265 25.48978711 257.80859375 23.30078125 C255.71553799 19.11466973 256.38494767 13.85945177 256.80859375 9.30078125 C259.07871475 4.41128986 261.90360669 1.53814377 266.80859375 -0.69921875 C272.24895676 -1.58584897 277.43284514 -2.0344404 282.359375 0.734375 C286.42153111 4.18757901 289.34635031 7.43842763 290.21484375 12.81640625 C290.43023027 19.09851313 289.69613569 22.90988005 285.5234375 27.7109375 C282.42927402 30.57955831 279.46057843 32.1256861 275.265625 32.5703125 C272.63800351 33.05764351 272.63800351 33.05764351 271.48046875 35.41015625 C271.17625 36.2815625 270.87203125 37.15296875 270.55859375 38.05078125 C270.2440625 38.911875 269.92953125 39.77296875 269.60546875 40.66015625 C267.12363261 48.88427993 265.57600471 58.87665167 267.80859375 67.30078125 C270.52672204 71.46454584 274.91843885 73.8056554 279.125 76.26513672 C283.49504423 78.95332228 287.11138054 82.77836465 290.80859375 86.30078125 C291.37868164 86.8436377 291.94876953 87.38649414 292.53613281 87.94580078 C324.78281748 118.85657538 345.64848244 159.35292992 347.03125 204.44921875 C347.39415428 223.41947297 346.1060041 242.26989812 339.80859375 260.30078125 C339.39649658 261.48172363 339.39649658 261.48172363 338.97607422 262.68652344 C321.071641 313.33510029 283.49430846 351.33386969 235.43359375 374.55078125 C179.39460376 400.79925719 111.47727462 404.83902821 52.80859375 384.30078125 C49.42839019 383.06768299 46.11909364 381.70950461 42.80859375 380.30078125 C41.66261719 379.8315625 40.51664062 379.36234375 39.3359375 378.87890625 C-8.02104465 359.16803136 -49.11478267 322.9594717 -69.2265625 275.19921875 C-72.28562535 267.67081322 -75.01263694 260.13225583 -77.19140625 252.30078125 C-77.40168457 251.56504883 -77.61196289 250.82931641 -77.82861328 250.07128906 C-81.22579449 237.60688865 -81.55782476 225.19563394 -81.56640625 212.36328125 C-81.56840027 211.57368011 -81.57039429 210.78407898 -81.57244873 209.97055054 C-81.56057386 168.42846714 -65.98779951 129.06392859 -37.48828125 98.75 C-35.50031871 96.63018281 -33.62005989 94.46433595 -31.75390625 92.23828125 C-26.278494 85.98792667 -20.30813149 80.08432992 -13.1484375 75.81640625 C-5.9941225 71.79697239 -5.9941225 71.79697239 -1.49707031 65.30029297 C-0.72412798 60.22800227 -1.32897174 55.32296408 -2.19140625 50.30078125 C-2.38863281 48.91052734 -2.38863281 48.91052734 -2.58984375 47.4921875 C-2.98255287 45.35451616 -3.53641709 43.37071494 -4.19140625 41.30078125 C-4.35125 40.57246094 -4.51109375 39.84414063 -4.67578125 39.09375 C-5.278066 36.83518217 -5.83198499 35.20668082 -7.19140625 33.30078125 C-9.42120233 32.17078788 -11.5539617 31.5539732 -13.97265625 30.93359375 C-17.99767921 29.78561185 -20.31241957 27.30100748 -23.00390625 24.23828125 C-24.86921301 19.62410136 -24.83406069 15.20372915 -24.19140625 10.30078125 C-22.56640625 6.92578125 -22.56640625 6.92578125 -20.19140625 4.30078125 C-19.36640625 3.35203125 -18.54140625 2.40328125 -17.69140625 1.42578125 C-12.82135503 -2.40334299 -5.63520274 -1.79804152 0 0 Z " fill="#FEFEFE" transform="translate(271.19140625,246.69921875)"/>
<path d="M0 0 C2.50242001 2.17454269 4.75461173 4.41354844 6.96875 6.87890625 C7.78859375 7.76642578 7.78859375 7.76642578 8.625 8.671875 C16.11906469 17.70062847 20.86064807 29.20517032 23.84375 40.44140625 C24.03461182 41.15917236 24.22547363 41.87693848 24.42211914 42.61645508 C27.45608983 55.02590385 28.37981723 67.63954183 28.34375 80.37890625 C28.34353851 81.08012604 28.34332703 81.78134583 28.34310913 82.5038147 C28.25802839 111.21796041 23.26496678 139.72215547 13.96875 166.87890625 C13.6377832 167.86568359 13.30681641 168.85246094 12.96582031 169.86914062 C-2.04825687 214.42450027 -24.03885915 254.59655618 -55.79296875 289.421875 C-57.26583807 291.03868967 -58.72717425 292.66609925 -60.17578125 294.3046875 C-77.69473014 314.0963649 -95.97947793 328.83465627 -121.03125 337.87890625 C-121.73193604 338.13438232 -122.43262207 338.3898584 -123.15454102 338.65307617 C-128.49712351 340.53004265 -133.74832078 341.72755183 -139.34375 342.56640625 C-140.59140137 342.75529419 -140.59140137 342.75529419 -141.86425781 342.94799805 C-169.60374912 346.92578724 -197.13491712 338.38238094 -219.80859375 322.4453125 C-228.35436721 315.87013658 -235.98113121 308.11093164 -243.59375 300.50390625 C-244.47482422 299.63507813 -245.35589844 298.76625 -246.26367188 297.87109375 C-252.29263355 291.85548033 -257.73186977 285.54043065 -263.03125 278.87890625 C-264.06726986 277.62378437 -265.10594074 276.37084116 -266.1484375 275.12109375 C-277.70879567 261.08439162 -287.08135774 245.67565024 -296.03125 229.87890625 C-296.40991211 229.21487793 -296.78857422 228.55084961 -297.17871094 227.86669922 C-312.56700953 200.64689437 -323.23882512 170.32001604 -330.03125 139.87890625 C-330.23089355 139.01458984 -330.43053711 138.15027344 -330.63623047 137.25976562 C-334.99153568 118.28019083 -336.1964783 99.37146596 -336.28125 79.94140625 C-336.28660767 79.25938141 -336.29196533 78.57735657 -336.29748535 77.87466431 C-336.42886097 55.87356162 -332.83827067 36.1700971 -322.03125 16.87890625 C-321.53625 15.99074219 -321.04125 15.10257813 -320.53125 14.1875 C-313.79035211 3.17609009 -304.07411771 -3.10680451 -292.03125 -7.12109375 C-278.32071961 -7.83261828 -269.23537127 -6.53001012 -257.22265625 0.203125 C-238.70307946 9.9276029 -218.51618135 14.46841822 -198.03125 17.87890625 C-197.16983398 18.03133789 -196.30841797 18.18376953 -195.42089844 18.34082031 C-167.51433764 23.16379069 -136.8791245 22.92821708 -109.03125 17.87890625 C-108.15291504 17.72373535 -107.27458008 17.56856445 -106.36962891 17.40869141 C-100.55904948 16.36336252 -94.79326423 15.16278632 -89.03125 13.87890625 C-88.30437988 13.72309082 -87.57750977 13.56727539 -86.82861328 13.40673828 C-77.29767596 11.3489965 -68.75241734 8.32589515 -60.03125 3.87890625 C-58.70673828 3.22535156 -58.70673828 3.22535156 -57.35546875 2.55859375 C-54.04932289 0.92351695 -50.75933851 -0.73112684 -47.5078125 -2.47265625 C-31.81621868 -10.72884869 -14.71816839 -10.29892453 0 0 Z " fill="#FEFEFE" transform="translate(559.03125,643.12109375)"/>
<path d="M0 0 C2.88027376 2.88027376 3.34176663 6.34206598 4.3125 10.1875 C4.5283374 11.0333667 4.7441748 11.8792334 4.96655273 12.75073242 C5.65765936 15.49738689 6.33145059 18.24777282 7 21 C7.32387695 22.31919434 7.32387695 22.31919434 7.65429688 23.66503906 C15.74856949 57.1123449 25.63499049 103.24306022 7 135 C3.06804946 138.56404873 -0.65047791 139.37608728 -5.94921875 139.26953125 C-11.0115829 138.60419196 -14.04040986 135.17375961 -17.0625 131.375 C-21.84834667 124.59399825 -25.7049425 118.52510458 -25 110 C-23.93359375 107.2109375 -23.93359375 107.2109375 -22.4375 104.375 C-7.61685976 73.85986102 -2.85806397 39.22363167 -1.23364258 5.72949219 C-1 3 -1 3 0 0 Z " fill="#FBFDFD" transform="translate(604,729)"/>
<path d="M0 0 C0.33 0 0.66 0 1 0 C1.12060791 1.48826294 1.12060791 1.48826294 1.24365234 3.0065918 C1.54837575 6.75128929 1.85927614 10.49545436 2.171875 14.23950195 C2.30534921 15.84809081 2.43723368 17.45681253 2.56738281 19.06567383 C3.35462079 28.78200721 4.32112267 38.38826334 6 48 C6.14953125 48.86407471 6.2990625 49.72814941 6.453125 50.6184082 C9.75286585 69.03526932 15.64944302 86.14214822 22.01171875 103.703125 C22.34647217 104.62770508 22.68122559 105.55228516 23.02612305 106.50488281 C23.9393353 108.98047359 23.9393353 108.98047359 25.12426758 111.14355469 C26.58579583 114.24181531 25.96031415 116.85511155 25 120 C21.91185361 127.40350405 18.22018974 135.79175839 11.125 140.15234375 C8.68432946 141.12592005 6.74970382 141.3679985 4.125 141.4375 C3.30257812 141.47746094 2.48015625 141.51742187 1.6328125 141.55859375 C-2.12814296 140.76064623 -4.52554942 138.83358774 -7 136 C-8.33531604 133.44635074 -9.33425462 131.24946415 -10.25 128.5625 C-10.49959473 127.84932617 -10.74918945 127.13615234 -11.00634766 126.40136719 C-23.92037919 87.89064541 -11.86037672 37.62216623 0 0 Z " fill="#FCFDFD" transform="translate(205,727)"/>
<path d="M0 0 C6.95715992 4.0196924 11.49033031 10.30472139 14.15625 17.796875 C16.35973045 26.87311589 15.29802319 36.71082643 10.453125 44.7578125 C6.62137176 50.11041625 2.3343272 54.72131985 -4.1875 56.5 C-10.69256967 57.32405873 -15.83074083 56.36500345 -21.1875 52.5 C-28.49790884 45.52037889 -32.18456409 37.82394696 -32.5625 27.75 C-32.33922843 17.81441523 -29.10698907 10.42669005 -22.1875 3.31640625 C-15.86522543 -2.42550327 -7.84027537 -3.42536303 0 0 Z " fill="#37BBB5" transform="translate(476.1875,500.5)"/>
<path d="M0 0 C7.05192639 4.13060814 12.33246489 10.25063103 14.71484375 18.125 C15.16800042 21.24032146 15.23868382 24.29249331 15.21484375 27.4375 C15.21129883 28.27619629 15.20775391 29.11489258 15.20410156 29.97900391 C15.02492896 36.6720096 13.66433066 41.62556909 9.71484375 47.125 C9.13734375 48.053125 8.55984375 48.98125 7.96484375 49.9375 C3.29614019 54.47651735 -1.75736167 57.3945912 -8.34765625 57.75 C-15.35157113 57.34822504 -19.97490667 53.78164143 -24.59765625 48.75 C-30.65065767 41.18374823 -32.02950665 32.59479116 -31.28515625 23.125 C-29.77405101 14.63463748 -26.01656293 8.50103462 -19.66015625 2.75 C-13.6132875 -1.38733125 -7.07250951 -2.7081062 0 0 Z " fill="#36BBB5" transform="translate(348.28515625,499.875)"/>
</svg>
